<?xml version="1.0" encoding="utf-8"?>
<!-- Generator: Adobe Illustrator 23.0.2, SVG Export Plug-In . SVG Version: 6.00 Build 0)  -->
<svg version="1.1" id="Layer_1" xmlns="http://www.w3.org/2000/svg" xmlns:xlink="http://www.w3.org/1999/xlink" x="0px" y="0px"
	 viewBox="0 0 512 512" style="enable-background:new 0 0 512 512;" xml:space="preserve">
<style type="text/css">
	.st0{fill:#C4C4F5;}
	.st1{fill:#FA9CA0;stroke:#EB8667;stroke-width:0.4723;stroke-miterlimit:10;}
	.st2{fill:#4B62D4;}
	.st3{fill:#6170EB;}
	.st4{fill:none;stroke:#F8F6F5;stroke-width:0.4126;stroke-linecap:round;stroke-miterlimit:10;}
	.st5{fill:#FDC76C;}
	.st6{fill:#FFFFFF;}
	.st7{fill:#EDEDED;}
	.st8{fill:none;stroke:#E6AB56;stroke-width:0.4126;stroke-linecap:round;stroke-miterlimit:10;}
	.st9{fill:#F7B962;}
	.st10{fill:#FA9CA0;}
	.st11{fill:none;stroke:#EB8667;stroke-width:0.3724;stroke-linecap:round;stroke-linejoin:round;stroke-miterlimit:10;}
	.st12{fill:#F2D3AE;}
	.st13{fill:#3E303C;}
	.st14{fill:#FC9EA2;}
	.st15{fill:#F28A91;}
	.st16{fill:#372834;}
	.st17{fill:none;stroke:#DB7A80;stroke-width:0.4913;stroke-linecap:round;stroke-linejoin:round;stroke-miterlimit:10;}
	.st18{fill:#E6AB56;}
	.st19{fill:#E0993D;}
	.st20{fill:#6D27A3;}
	.st21{fill:#473DD3;}
	.st22{fill:#5757E6;}
	.st23{fill:#B056DD;}
	.st24{fill:#A045D6;}
	.st25{fill:#8D40BA;}
	.st26{fill:none;stroke:#6D27A5;stroke-width:0.5489;stroke-linecap:round;stroke-miterlimit:10;}
	.st27{opacity:0.1;fill:#B0B9EB;}
	.st28{opacity:0.4;fill:#F5F5F7;}
	.st29{fill:#888BFD;}
	.st30{fill:#F1B762;}
	.st31{fill:#F7F7F7;}
	.st32{fill:#F5F5F7;}
	.st33{fill:#D0DEFD;}
	.st34{fill:#5151D0;}
	.st35{fill:#6767E3;}
	.st36{fill:#7575E8;}
	.st37{fill:#F4E5D2;}
	.st38{fill:#F1CAB0;}
	.st39{fill:#5564A9;}
	.st40{fill:#6873B3;}
	.st41{fill:#AD56DB;}
	.st42{fill:#C3C7F6;}
	.st43{fill:#727BF0;}
	.st44{fill:#4B4BDB;}
	.st45{opacity:0.5;fill:#473DD3;}
	.st46{opacity:5.000000e-02;fill:#162682;}
	.st47{opacity:7.000000e-02;fill:#FFFFFF;}
	.st48{fill:none;stroke:#C3C7F6;stroke-width:5.6;stroke-linecap:round;stroke-miterlimit:10;}
</style>
<g>
	<ellipse class="st0" cx="243.5" cy="465.7" rx="225.9" ry="20.2"/>
	<g>
		<path class="st0" d="M115.1,174.5c28.3-17.3,35.4-27.6,65.1-60.3c31.9-35.1,73.9-55.6,121.7-53.6C363,63.1,478,111.5,469.2,230
			c-8.8,118.5-116.1,159.3-218.4,174.8C124.4,424-64.7,284.3,115.1,174.5z"/>
		
			<ellipse transform="matrix(0.807 -0.5906 0.5906 0.807 -2.4028 132.2568)" class="st0" cx="201.1" cy="69.8" rx="12.5" ry="12.5"/>
		<path class="st0" d="M463.4,303.7c-1.5,3.8,0.4,8.2,4.2,9.7c3.8,1.5,8.2-0.4,9.7-4.2c1.5-3.8-0.4-8.2-4.2-9.7
			C469.3,298,465,299.9,463.4,303.7z"/>
		<path class="st0" d="M226.2,55.5c-1.2,3,0.3,6.4,3.3,7.6c3,1.2,6.4-0.3,7.6-3.3c1.2-3-0.3-6.4-3.3-7.6
			C230.8,51,227.4,52.5,226.2,55.5z"/>
	</g>
	<g>
		<g>
			<path class="st1" d="M314.4,122.5c1.4,1.4-2.2,4.3-3.7,3C309.2,124.1,312.7,120.7,314.4,122.5z"/>
			<path class="st1" d="M316.9,122c1.8,0.8-0.5,4.8-2.4,4.1C312.5,125.4,314.6,120.9,316.9,122z"/>
			<path class="st1" d="M320.6,121.2c2,0.9-0.6,5.2-2.8,4.4C315.6,124.8,318,120,320.6,121.2z"/>
			<path class="st1" d="M323.4,120.4c-1.7,0.1-2.9,5.3,0.2,5.4C326.1,125.9,326.3,120.3,323.4,120.4z"/>
		</g>
		<g>
			<polygon class="st2" points="421.5,287.1 396.8,356.7 381,442 355.7,440.6 363.2,371.1 391.9,263.6 426,265.6 			"/>
			<path class="st3" d="M438.2,266.6c0,0,3.8,13.6,2.8,34.6c-1,21-2,38.7-1.8,45.8c0.3,7.1,0.5,11.4,0,17.8
				c-0.5,6.3-2.4,78.4-2.4,78.4h-27.4L402,265.8L438.2,266.6z"/>
			<path class="st4" d="M424.3,266.9c0,0,0.3,19.7,14.9,27.5"/>
		</g>
		<path class="st5" d="M428.3,143.9c0,0,18.2,1.3,25.8,10.6c0,0-16.9,49.8-13.9,112.9c0,0-27.5,2.5-50-1.3l-2.3-116.2
			c0,0,19.4-5.6,23.2-6.1C414.9,143.4,428.3,143.9,428.3,143.9z"/>
		<g>
			<path class="st6" d="M61.8,416.6c0,0,91.7-89.2,79.6-289.3l268-3c0,0-16.8,318.1-117.2,337.7c-1.5,0.3-5,0.3-5.5,0.3l-33.1-7.6
				L61.8,416.6z"/>
			<path class="st7" d="M18.8,381.7c0,0,163.7,25.3,252.6,27.5c0,0-12.6,8.1-13.1,23.2c-0.5,15.2,16.9,31.1,33.9,29.6
				c0,0-3,0.5-13.4,0.5H112.5c-0.9,0-1.7-0.1-2.5-0.2C99.1,460.6,26.1,446.5,18.8,381.7z"/>
		</g>
		<path class="st8" d="M412.2,185.8c0,0-5.8,43.4-6.1,80.6"/>
		<path class="st9" d="M441.4,182.5l-1.1,0.7c0,0-12.6,58.7-10.4,84.8c6.2-0.2,10.2-0.6,10.2-0.6c-1.3-27.4,1.1-52.3,4.3-71.7
			L441.4,182.5z"/>
		<g>
			<g>
				<path class="st10" d="M399.7,215.9c-4-0.4-7.7-1.6-10.2-2.5s-8-1.1-8.3-0.6c-0.3,0.5-0.1,1.8,3.2,2.8c2,0.6,2.7,1.3,2.7,1.3
					s-0.9,1-2.5,1.5c-1.6,0.5-8.2,2.9-9,3.2c-0.8,0.3-0.5,1.4,0.9,1.3c-2,0.6-2,1.9,0.1,2.2c0,0-1.3,1,1,1.5
					c2.3,0.5,5.7,0.6,5.7,0.6s-3.9,0.6-4.3,0.8c-0.4,0.3-0.3,1.1,1.1,1.2c1.5,0.1,11.2-0.5,12.8-0.7c2-0.3,5.8-1.3,5.8-1.3
					S402.1,219.7,399.7,215.9z"/>
			</g>
			<path class="st11" d="M386.3,212.8c-2.4-0.3-4.9-0.3-5.1,0c-0.3,0.5-0.1,1.8,3.2,2.8c2,0.6,2.7,1.3,2.7,1.3s-0.9,1-2.5,1.5
				c-1.6,0.5-8.2,2.9-9,3.2c-0.8,0.3-0.5,1.4,0.9,1.3c-2,0.6-2,1.9,0.1,2.2c0,0-1.3,1,1,1.5c2.3,0.5,5.7,0.6,5.7,0.6
				s-3.9,0.6-4.3,0.8c-0.4,0.3-0.3,1.1,1.1,1.2c0.4,0,1.6,0,3.1-0.1"/>
			<path class="st11" d="M383.4,227.1c1.2-0.2,2.2-0.2,2.2-0.2"/>
			<line class="st11" x1="376.7" y1="225" x2="385.1" y2="224.2"/>
			<line class="st11" x1="376.5" y1="222.8" x2="384.2" y2="221.6"/>
		</g>
		<path class="st12" d="M399.3,215.6c0,0,1.7,5.3-0.8,11.8l6.9-0.7l0.3-11.1H399.3z"/>
		<path class="st5" d="M446,153.2c0,0,10.6-3.8,14.1,11.1c3.5,14.9,11.9,60.4,6.1,62.1c-5.8,1.8-33.8,2-41.7,2
			c-7.8,0-21.3-0.9-21.3-0.9s2.4-6.1,0.1-12.4l43.9-3.3C447.3,211.8,428.1,158.5,446,153.2z"/>
		<polygon class="st12" points="409.6,148.2 429.8,149.4 412.2,185.8 		"/>
		<g>
			<path class="st13" d="M437.7,123.2c0,0-3.4,5.7-6.9,5.7l2.3-4.6L437.7,123.2z"/>
			<path class="st14" d="M431,144.6c0,0-1.8,7.5-10.1,9.3c-8.3,1.9-11.5-2.2-11.3-5.7c0-0.2,0-0.5,0-0.8c0.2-3.9,0.8-8.3,1.1-16.1
				c0-1.2,0.3-2.6,0.7-3.9c2.5-7.9,15.9-17.6,16.5-3.7C428.3,131.2,431,144.6,431,144.6z"/>
			<path class="st15" d="M409.6,147.4c0.2-3.9,0.8-8.3,1.1-16.1c0-1.2,0.3-2.6,0.7-3.9c4.3,0.8,9.7,3.2,9.6,7.4
				C421,141,418.9,147.9,409.6,147.4z"/>
			<g>
				<path class="st14" d="M411.2,141c8,0,18.7-6.7,23.8-17.3c5.7-11.7-1-17.1-2.9-21.4c-1.9-4.3-8.8-13.3-19.4-6.2
					c-9.5,6.4-11.9,3.1-12.4,23.1c0,1.7,0.7,6.9,1.3,10.7C403.4,139.3,406.5,141,411.2,141z"/>
			</g>
			<path class="st16" d="M406.7,115.5c0.1,0.9-0.2,1.6-0.7,1.7c-0.5,0.1-0.9-0.6-1.1-1.5c-0.1-0.9,0.2-1.6,0.7-1.7
				C406.1,113.9,406.6,114.6,406.7,115.5z"/>
			<path class="st15" d="M417.6,123.1c0.8,2.5,3.4,3.8,5.9,3c2.5-0.8,3.8-3.4,3-5.9c-0.8-2.5-3.4-3.8-5.9-3
				C418.2,118,416.9,120.7,417.6,123.1z"/>
			<path class="st17" d="M408.6,117.8c0,0-1.9,5.1-1.6,6.2c0.3,1.2,3-0.3,3-0.3"/>
			<path class="st17" d="M415.3,125.5c0,0,0.1,4.5-4.1,3"/>
			<path class="st15" d="M400.4,119.1c0-0.2,0-0.4,0-0.5c1.9,0.1,3.7,1.3,4.3,3.2c0.8,2.5-0.6,5.1-3,5.9c-0.1,0-0.2,0.1-0.3,0.1
				C400.8,124.4,400.4,120.6,400.4,119.1z"/>
			<path class="st16" d="M407.3,111.2c0,0,0.4-0.3-0.3-0.7c-0.7-0.4-2.6-0.9-4,0.3c0,0-0.5,0.4,0.3,0.6
				C403.7,111.6,406,111.9,407.3,111.2z"/>
			<path class="st16" d="M411.7,111.3c0,0-0.4-0.3,0.3-0.7c0.7-0.4,2.7-0.8,4,0.4c0,0,0.5,0.4-0.3,0.6
				C415.3,111.8,412.9,112,411.7,111.3z"/>
			<g>
				<g>
					<g>
						<g>
							<g>
								<path class="st16" d="M399.1,108.3l0.1,3c-0.2,3.2-0.5,5.2,1.2,7.9c0,0,0.1-5.9,0.8-11.1c0.3-1.8,1.2-3.4,2.6-4.5
									c6.9-5.2,8.8-1.4,13.6-1.3c1.4,0.1,3.8,0.2,5.9,0.6c1.4,0.3,2.1,1.6,1.9,2.9c0,0.1,0,0.2,0,0.4c-0.8,6.7,2.5,14,6.4,17.1
									c0.4,0.3,0.5,0.9,1,1.1c1.5,0.6,2-1.3,2.9-2.2c0.7-0.7,2.2,0.1,3.3,0.1c0.7-1.8,6.2-10.1,3.7-20c-1.4-5.6-3.6-12.1-8.3-13
									c-5.4-5.2-11.2-3.1-13.5-3.6c-3.5-0.8-8.4,0.3-11.8,1.8c-2.6,1.1-6.1,2.8-8.2,7.1C397,102.2,398.9,105.1,399.1,108.3z"/>
							</g>
						</g>
					</g>
				</g>
			</g>
			<path class="st14" d="M429.1,121.2c-0.3-5,6.4-9.8,9.5-3.6c2.7,5.4-2.5,7.5-5.3,8.2L429.1,121.2z"/>
			<path class="st17" d="M431.2,121.8c0,0,0.9-6.4,5.9-3.6"/>
			<path class="st17" d="M435.5,121.2c0,0,0.6-2.8-1.6-3.7"/>
			<path class="st16" d="M414.3,115.6c0.1,0.9-0.2,1.6-0.7,1.7c-0.5,0.1-0.9-0.6-1.1-1.5c-0.1-0.9,0.2-1.6,0.7-1.7
				C413.7,114,414.2,114.7,414.3,115.6z"/>
			<path class="st16" d="M434.3,90.1c0,0-1.1-1.1-1.1-4.6c0,0,1.1,2.3,2.3,3.4h2.3L434.3,90.1z"/>
		</g>
		<path class="st8" d="M438.9,168.1c0.6-6.3,2.1-11.1,5-12.7c0,0,0,0,0,0c7.2-3.8,11.4-1.1,14.5,4.2"/>
		<path class="st8" d="M443.6,200.8l-3.4-15c-1-4.5-1.6-9.2-1.8-13.8l0-0.3"/>
		<path class="st8" d="M447.3,211.8c0,0,8.1-2.8,14.1,7.3"/>
		<line class="st8" x1="443.1" y1="212.1" x2="415.6" y2="214"/>
		<line class="st8" x1="413.9" y1="214" x2="409.6" y2="214.3"/>
		<line class="st8" x1="407.1" y1="227.5" x2="445.5" y2="228.2"/>
		<path class="st8" d="M463.1,178.7c0,0,5.2,27.5,5,39.9"/>
		<path class="st8" d="M404.3,220.7c0.2,3.3-1.1,6.8-1.1,6.8l2.4-0.1"/>
		<path class="st8" d="M403.7,216.4c0,0-0.4-1.1-0.6-1.9l3.5-0.3"/>
		<g>
			<path class="st18" d="M430.7,143.2c0,0-15.3,26.4-18.6,42.6l16.7-18.9l-3-5.3l7.6-1.3l1.8-16.4C435.1,143.9,437,144,430.7,143.2z
				"/>
			<polygon class="st18" points="409.9,143.9 412.2,185.8 405.3,162.8 407.9,159.5 404.3,157.2 406.3,144.1 			"/>
		</g>
		<g>
			<path class="st5" d="M380.4,465.7c0,0,0.6-14.3-2.9-14.6c-3.5-0.3-5.4,3.5-9.9,2.9c-4.5-0.6-10.2-3.2-11.1-2.9
				c-1,0.3-24.2,4.8-23.8,10.2v4.5H380.4z"/>
			<path class="st19" d="M332.7,465.7h47.7c0,0,0.1-1.5,0-3.5h-47.7V465.7z"/>
		</g>
		<g>
			<path class="st5" d="M436.7,465.7c0,0,0.6-14.3-2.9-14.6c-3.5-0.3-5.4,3.5-9.9,2.9c-4.5-0.6-10.2-3.2-11.1-2.9
				c-1,0.3-24.2,4.8-23.8,10.2v4.5H436.7z"/>
			<path class="st19" d="M389.1,465.7h47.7c0,0,0.1-1.5,0-3.5h-47.7V465.7z"/>
		</g>
		<path class="st10" d="M360.7,440.8c0,1.9,0,4.4,0,6.1c0,2.6-3.7,4-5,4.3c0.5-0.1,0.8-0.2,0.9-0.2c1-0.3,6.7,2.2,11.1,2.9
			c4.5,0.6,6.4-3.2,9.9-2.9c0.1,0,0.1,0,0.2,0l-0.5-9.3L360.7,440.8z"/>
		<path class="st10" d="M416.5,443.1c0.2,1.4,0.3,4.7-2.9,8c1.9,0.4,6.6,2.3,10.4,2.8c3.7,0.5,5.6-2,8.2-2.7l-0.3-8.1H416.5z"/>
	</g>
	<g>
		<path class="st20" d="M113.2,371.8c0,0,1.3,7.4,1.8,13.4l-3.8,0.2l-0.9-10.8L113.2,371.8z"/>
		
			<rect x="94.8" y="386.3" transform="matrix(-1 -1.224647e-16 1.224647e-16 -1 226.4807 784.8272)" class="st3" width="37" height="12.3"/>
		<path class="st21" d="M91.7,405.5h43v-9.2c0-0.9-0.7-1.6-1.6-1.6H93.3c-0.9,0-1.6,0.7-1.6,1.6V405.5z"/>
		<path class="st22" d="M73.4,466h79.7c2.6,0,4.7-2.1,4.7-4.7v-54.7c0-2.6-2.1-4.7-4.7-4.7H73.4c-2.6,0-4.7,2.1-4.7,4.7v54.7
			C68.7,463.9,70.8,466,73.4,466z"/>
		<path class="st21" d="M95.7,388h35.2c1.3,0,2.4-1.1,2.4-2.4l0,0c0-1.3-1.1-2.4-2.4-2.4H95.7c-1.3,0-2.4,1.1-2.4,2.4l0,0
			C93.3,387,94.4,388,95.7,388z"/>
		<path class="st23" d="M112.7,378.2c0,0,26.9-51.1-27.8-89.1c-54.7-38.1-50.2-49.3-50.2-49.3s2,52.4,14.3,74.8c0,0,13,2.2,12.1,2.5
			c-0.9,0.2-8.3,7.8-8.3,7.8S74.4,376.2,112.7,378.2z"/>
		<g>
			<path class="st24" d="M34.7,239.8c0,0,0,0.8,0.1,2.1C34.4,240.4,34.7,239.8,34.7,239.8z"/>
			<path class="st25" d="M34.8,241.9c1.1,4.8,8.5,18.2,50.1,47.1c54.7,38.1,27.8,89.1,27.8,89.1c-2.7-0.1-5.4-0.5-7.9-1.1
				c6.1-13.4,18.2-52.1-23.9-86C46,262.8,37,248.6,34.8,242.4C34.8,242.2,34.8,242.1,34.8,241.9z"/>
		</g>
		<path class="st26" d="M112.5,378.3c0,0-3.2-32.6-26.5-58.6c-23.3-26-34.9-33.8-38.7-46.6"/>
		<path class="st27" d="M74.4,401.9h67.4c1.9,5.4,2.9,11.1,2.9,17.1c0,20.5-11.8,38.3-28.9,46.9H74.4c-3.2,0-5.8-2.6-5.8-5.8v-52.5
			C68.7,404.5,71.2,401.9,74.4,401.9z"/>
		<path class="st27" d="M74.4,401.9h38.2c-2.4,23.8-20.6,42.9-43.9,46.6v-40.8C68.7,404.5,71.2,401.9,74.4,401.9z"/>
		<path class="st28" d="M95.5,397h20.3c0.3,0,0.6-0.3,0.6-0.6l0,0c0-0.3-0.3-0.6-0.6-0.6H95.5c-0.3,0-0.6,0.3-0.6,0.6l0,0
			C95,396.8,95.2,397,95.5,397z"/>
		<circle class="st28" cx="93.9" cy="396.4" r="0.6"/>
		<path class="st28" d="M97.8,385.4h20.3c0.3,0,0.6-0.3,0.6-0.6l0,0c0-0.3-0.3-0.6-0.6-0.6H97.8c-0.3,0-0.6,0.3-0.6,0.6l0,0
			C97.2,385.1,97.5,385.4,97.8,385.4z"/>
		<path class="st28" d="M95.6,384.8c0,0.3,0.3,0.6,0.6,0.6c0.3,0,0.6-0.3,0.6-0.6c0-0.3-0.3-0.6-0.6-0.6
			C95.9,384.2,95.6,384.5,95.6,384.8z"/>
	</g>
	<g>
		<path class="st29" d="M116.1,206.4H50c-3.9,0-7-3.1-7-7v-38.7c0-3.9,3.1-7,7-7h66.1c3.9,0,7,3.1,7,7v38.7
			C123.1,203.2,120,206.4,116.1,206.4z"/>
		<g>
			<path class="st30" d="M81.1,176.5H65.1c-0.5,0-0.9-0.4-0.9-0.9v-11.3c0-0.5,0.4-0.9,0.9-0.9h16.1c0.5,0,0.9,0.4,0.9,0.9v11.3
				C82,176.1,81.6,176.5,81.1,176.5z"/>
			<path class="st31" d="M100.1,194.9h-34c-1,0-1.9-0.8-1.9-1.9v-23.8c0-1,0.8-1.9,1.9-1.9h34c1,0,1.9,0.8,1.9,1.9V193
				C102,194.1,101.1,194.9,100.1,194.9z"/>
			<path class="st30" d="M100.1,196.6h-34c-1,0-1.9-0.8-1.9-1.9v-23.8c0-1,0.8-1.9,1.9-1.9h34c1,0,1.9,0.8,1.9,1.9v23.8
				C102,195.8,101.1,196.6,100.1,196.6z"/>
			<path class="st5" d="M102,171.3c0-1.3-1-2.3-2.3-2.3H66.5c-1.3,0-2.3,1-2.3,2.3v19.4c3.1,0.8,6.3,1.3,9.7,1.3
				c12.3,0,22.9-6,28.1-14.8V171.3z"/>
			<circle class="st32" cx="91.4" cy="172" r="0.8"/>
			<circle class="st32" cx="94.3" cy="172" r="0.8"/>
			<circle class="st32" cx="97.3" cy="172" r="0.8"/>
		</g>
	</g>
	<g>
		<path class="st29" d="M156.2,137.3h-46c-3,0-5.4-2.4-5.4-5.4V98c0-3,2.4-5.4,5.4-5.4h46c3,0,5.4,2.4,5.4,5.4v33.9
			C161.6,134.9,159.2,137.3,156.2,137.3z"/>
		<g>
			<g>
				<g>
					<path class="st6" d="M116.4,103.6c0,0,13.5,12.2,9.7,28.7l23.5-4.5c0,0,0.6-19.2-11-27.9L116.4,103.6z"/>
				</g>
				<g>
					
						<rect x="123.2" y="104.3" transform="matrix(0.9874 -0.1583 0.1583 0.9874 -14.8828 22.017)" class="st33" width="15.2" height="0.4"/>
				</g>
				<g>
					
						<rect x="125" y="105.9" transform="matrix(0.9885 -0.1509 0.1509 0.9885 -14.4927 21.1888)" class="st33" width="14.8" height="0.4"/>
				</g>
				<g>
					
						<rect x="126.5" y="107.7" transform="matrix(0.9872 -0.1595 0.1595 0.9872 -15.4941 22.6704)" class="st33" width="14" height="0.4"/>
				</g>
				<g>
					
						<rect x="127.5" y="109.8" transform="matrix(0.9894 -0.1451 0.1451 0.9894 -14.5444 20.6996)" class="st33" width="14.2" height="0.4"/>
				</g>
				<g>
					
						<rect x="128.3" y="111.5" transform="matrix(0.9892 -0.1465 0.1465 0.9892 -14.9117 21.0391)" class="st33" width="14" height="0.4"/>
				</g>
				<g>
					
						<rect x="128.3" y="113.9" transform="matrix(0.9858 -0.168 0.168 0.9858 -17.2334 24.4693)" class="st33" width="15.3" height="0.4"/>
				</g>
			</g>
			<g>
				<path class="st34" d="M147.2,99l1.3,0.5l1.3,0.5l0.1-0.3c0.2-0.4,0-0.9-0.4-1l-2.6-1c-0.4-0.2-0.9,0-1,0.4l-0.1,0.3l0.6,0.2
					L147.2,99z"/>
				<polygon class="st34" points="146.3,98.6 145.7,98.4 145.6,98.7 139.1,115.1 139.7,115.3 				"/>
				
					<rect x="134.5" y="106.7" transform="matrix(0.3668 -0.9303 0.9303 0.3668 -8.8526 201.2777)" class="st22" width="17.9" height="1"/>
				<polygon class="st35" points="148.5,99.5 147.2,99 140.6,115.7 141.5,116 141.9,116.2 				"/>
				<polygon class="st36" points="141.9,116.2 143.2,116.7 149.6,100.3 149.7,100 148.5,99.5 				"/>
				<polygon class="st37" points="139.2,119.2 139.2,119.2 139.1,115.1 				"/>
				<path class="st37" d="M141.5,116c-0.2,0.1-0.4,0.3-0.5,0.4c-0.5,0.5-1,1.2-1.2,1.9c-0.1,0.3-0.1,0.6-0.2,1l0.7,0.3l2.9-2.9
					l-1.3-0.5L141.5,116z"/>
				<path class="st38" d="M139.6,119.3c0-0.3,0.1-0.6,0.2-1c0.2-0.7,0.7-1.4,1.2-1.9c0.2-0.2,0.3-0.3,0.5-0.4l-1-0.4l-0.9-0.3
					l-0.6-0.2l0.1,4.1L139.6,119.3z"/>
				<path class="st39" d="M139.2,119.2L139.2,119.2l0,1.8l1.2-1.3l-0.7-0.3L139.2,119.2z M140.2,119.6l-0.8,0.9l0.3-1.1L140.2,119.6
					z"/>
				<polygon class="st40" points="139.4,120.5 140.2,119.6 139.7,119.4 				"/>
			</g>
		</g>
	</g>
	<g>
		<g>
			<g>
				<g>
					<path class="st41" d="M463.7,394.7l-1.8-1.5c-1.9-1.6-2.1-4.5-0.5-6.4l12.8-15c1.6-1.9,4.5-2.1,6.4-0.5l2.6,2.2
						c0.4,0.3,0.4,0.9,0.1,1.3c-0.3,0.4-0.9,0.4-1.3,0.1l-2.6-2.2c-1.2-1-2.9-0.9-3.9,0.3l-12.8,15c-1,1.2-0.9,2.9,0.3,3.9l1.8,1.5
						c1.2,1,2.9,0.9,3.9-0.3l8.5-9.9c0.3-0.4,0.9-0.4,1.3-0.1c0.4,0.3,0.4,0.9,0.1,1.3l-8.5,9.9
						C468.5,396.1,465.6,396.3,463.7,394.7z"/>
				</g>
			</g>
			<g>
				<g>
					<path class="st41" d="M451.4,410.7l-3.2-2.7c-3-2.5-3.2-7.2-0.5-10.4L467,375c0.3-0.4,0.9-0.4,1.3-0.1c0.4,0.3,0.4,0.9,0.1,1.3
						l-19.2,22.5c-2.1,2.4-2,6,0.3,7.9l3.2,2.7c2.2,1.9,5.7,1.5,7.8-1l21.9-25.7c2.1-2.4,2-6-0.3-7.9c-0.4-0.3-0.4-0.9-0.1-1.3
						c0.3-0.4,0.9-0.4,1.3-0.1c3,2.5,3.2,7.2,0.5,10.4l-21.9,25.7C459,412.7,454.4,413.2,451.4,410.7z"/>
				</g>
			</g>
		</g>
		<g>
			<g>
				<g>
					<path class="st41" d="M307.5,57.2l2.3-1.4c2.5-1.5,5.7-0.6,7.2,1.9l11.5,19.7c1.5,2.5,0.6,5.7-1.9,7.2l-3.4,2
						c-0.5,0.3-1.1,0.1-1.4-0.4c-0.3-0.5-0.1-1.1,0.4-1.4l3.4-2c1.5-0.9,2-2.9,1.2-4.4l-11.5-19.7c-0.9-1.5-2.9-2-4.4-1.2l-2.4,1.4
						c-1.5,0.9-2,2.9-1.2,4.4l7.6,13.1c0.3,0.5,0.1,1.1-0.4,1.4c-0.5,0.3-1.1,0.1-1.4-0.4l-7.6-13.1C304.2,61.9,305,58.6,307.5,57.2
						z"/>
				</g>
			</g>
			<g>
				<g>
					<path class="st41" d="M294.7,37.6l4.2-2.5c3.9-2.3,9.1-0.7,11.5,3.5l17.3,29.6c0.3,0.5,0.1,1.1-0.4,1.4
						c-0.5,0.3-1.1,0.1-1.4-0.4l-17.3-29.6c-1.9-3.2-5.8-4.4-8.7-2.7l-4.2,2.5c-2.9,1.7-3.8,5.7-1.9,8.9l19.7,33.8
						c1.9,3.2,5.8,4.4,8.7,2.7c0.5-0.3,1.1-0.1,1.4,0.4c0.3,0.5,0.1,1.1-0.4,1.4c-3.9,2.3-9.1,0.7-11.5-3.5l-19.7-33.8
						C289.6,45.2,290.8,39.9,294.7,37.6z"/>
				</g>
			</g>
		</g>
	</g>
	<g>
		<path class="st42" d="M252.4,181.7h62.9c2,0,3.6-1.6,3.6-3.6l0,0c0-2-1.6-3.6-3.6-3.6h-62.9c-2,0-3.6,1.6-3.6,3.6l0,0
			C248.8,180.1,250.4,181.7,252.4,181.7z"/>
		<g>
			<g>
				<g>
					<path class="st29" d="M178,191.6l-20.5,33.2c-0.6,0.9,0.3,2.1,1.3,1.7l11.3-3.4c0.7-0.2,1.4,0.3,1.5,1l1.4,11.3
						c0.1,1.1,1.6,1.4,2.2,0.5l21-34L178,191.6z"/>
					<path class="st43" d="M172.1,227.7l0.9,7.8c0.1,1.1,1.6,1.4,2.2,0.5l21-34l-3.1-1.8L172.1,227.7z"/>
				</g>
				<g>
					<path class="st29" d="M215.6,191.6l20.5,33.2c0.6,0.9-0.3,2.1-1.3,1.7l-11.3-3.4c-0.7-0.2-1.4,0.3-1.5,1l-1.4,11.3
						c-0.1,1.1-1.6,1.4-2.2,0.5l-21-34L215.6,191.6z"/>
					<path class="st43" d="M221.5,227.7l-0.9,7.8c-0.1,1.1-1.6,1.4-2.2,0.5l-21-34l3.1-1.8L221.5,227.7z"/>
				</g>
			</g>
			<g>
				<circle class="st44" cx="196.8" cy="182.1" r="34.8"/>
				<g>
					<path class="st29" d="M203.9,159.3c12.6,3.9,19.6,17.2,15.7,29.8c-3.9,12.6-17.2,19.6-29.8,15.7c-12.6-3.9-19.6-17.2-15.7-29.8
						C177.9,162.5,191.3,155.4,203.9,159.3z"/>
					<path class="st45" d="M195.6,195.7c0.3-0.4,0.6-0.7,1.1-1.1c0.4-0.4,0.5-0.5,0.7-0.8c0.1-0.1,0.2-0.3,0.3-0.4
						c0.1-0.1,0.3-0.1,0.4-0.1c0.3,0.1,0.2,0.5-0.1,0.9c0,0-0.1,0.1-0.1,0.1c-0.2,0.2-0.6,0.3-0.8,0.5c-0.4,0.3-0.6,0.9-1.1,1.2
						c-0.2,0-0.2,0-0.3,0c0-0.1,0.1-0.2,0.1-0.3c-0.1,0.1-0.2,0.1-0.4,0.2C195.5,195.8,195.6,195.7,195.6,195.7z M194.4,197.4
						c0,0-0.1,0.1-0.1,0c0.1-0.2,0.1-0.4,0.2-0.5c0.1-0.2,0.3-0.2,0.5-0.3c0.1-0.1,0.1-0.1,0.1-0.5c0-0.3,0.3-0.3,0.5-0.5
						c-0.4-0.1-2,1.1-2,1.2c0,0,0,0,0,0c0.2,0.1,0.4-0.2,0.6,0c0.1,0.1,0.1,0.1-0.1,0.5c0.2-0.1,0.2-0.1,0.2-0.2c0,0.9,0,0.9-0.1,1
						c0,0,0.1,0,0.1,0C194.4,197.9,194.3,197.6,194.4,197.4z M202.1,194.8C202.1,194.8,202.1,194.8,202.1,194.8
						c0.1,0,0.2-0.1,0.4-0.1c0.1,0,0.3-0.2,0.3-0.4c0-0.3-0.2-0.6-0.3-0.9c0,0-0.3,0.3-0.3,0.4C202.2,194.3,202.1,194.7,202.1,194.8
						z M199.6,201.1C199.6,201.1,199.6,201.2,199.6,201.1L199.6,201.1C199.6,201.2,199.6,201.1,199.6,201.1z M204.6,195.8
						C204.6,195.8,204.6,195.8,204.6,195.8C204.6,195.8,204.6,195.8,204.6,195.8C204.6,195.8,204.6,195.8,204.6,195.8z M215.8,167.7
						c0,0-0.1-0.1-0.1-0.1C215.8,167.6,215.8,167.6,215.8,167.7z M200.5,158.5C200.5,158.5,200.5,158.5,200.5,158.5L200.5,158.5
						L200.5,158.5z M215.7,167.6c-3-3.9-7.2-6.9-12.3-8.4c-1-0.3-2-0.5-3-0.7c-0.1,0-0.1,0-0.2,0c0.1,0,0.2,0.1,0.2,0.1
						c-0.2,0-0.4,0-0.6,0c0.2,0.2,1.6,0.6,2.1,0.8c-0.1,0-0.2,0-0.3,0c0,0,0,0,0.3,0.3c0,0-0.1,0.1-0.1,0.1c0.1,0.1,0.1,0.1,0.2,0.2
						c0,0,0,0,0,0.1c-0.1,0.6-1.1,0.4-1.1,1.1c0,0.4,0.3,0.6,0.4,0.9c0.1,0.4,0,0.8,0.1,1.2c0.1,0.7,0.7,1.3,0.7,2.1
						c0,0.5-0.6,0.8-0.2,1.3c0.8,1,4.8,1,5.6,0.4c0.1-0.1,0.1-0.2,0.2-0.2c0-0.1,0-0.2-0.1-0.3c0.4,0.1,0.7,0.2,1.1,0.2
						c0.6,0,0.5-1,1.2-0.9c0.3,0,0.8,0.3,1,0.4c0.5,0.3,1,0.5,1.2,0.4c0.3-0.1,0.2-0.5,0.5-0.6c0,0,0.1,0,0.1,0
						c-0.5-0.7,0.3-0.7,0.3-0.7C213.7,165.4,214.7,166.3,215.7,167.6C215.7,167.5,215.7,167.5,215.7,167.6z M216.7,194.1
						C216.7,194.1,216.7,194,216.7,194.1C216.7,194.1,216.7,194.1,216.7,194.1C216.7,194.1,216.7,194.1,216.7,194.1
						C216.7,194.1,216.7,194.1,216.7,194.1z M213.5,197.9c0,0,0,0-0.3,0.2l0,0c-0.3,0.2-0.5,0.5-0.7,0.7c0,0,0,0,0,0
						c0,0.1-0.9,0.8-0.9,0.8c0,0,0,0,0,0c-0.5,0.5-0.5,0.5-0.7,0.6c0,0,0.1-0.1,0.2-0.1c0,0,0,0-0.2,0.1l0,0
						c-0.1,0.1-0.2,0.2-0.3,0.2c0,0,0,0,0,0c-0.1,0.1-0.1,0.1-0.2,0.2c0,0,0,0,0,0c0,0,0,0,0,0c0,0,0,0,0,0c0.1,0,0.1-0.1,0.2-0.1
						c0.5-0.4,0.5-0.4,0.5-0.4c0.2-0.2,0.2-0.2,1.7-1.6c-0.1,0-0.1,0.1-0.1,0.1C213,198.3,213.3,198.2,213.5,197.9
						C213.5,197.9,213.5,197.9,213.5,197.9z M211.3,200.9C211.3,200.9,211.3,200.9,211.3,200.9C211.3,200.9,211.3,200.9,211.3,200.9
						C211.3,200.9,211.3,200.9,211.3,200.9C211.3,200.9,211.3,200.9,211.3,200.9z M216.7,194c-0.1,0.2-0.2,0.5-0.4,0.7
						c-0.1,0.2-1.6,2.1-1.6,2.2c-0.2,0.3-0.4,0.4-0.5,0.5c0.1-0.2,0.2-0.3,0.4-0.5c-0.3,0.3-0.6,0.6-1,0.9c0,0,0,0,0,0
						c0-0.1,0.3-0.4,0.4-0.4c0.1,0,1.5-1.7,1.6-1.9c0,0,0,0,0,0c0,0,0,0,0,0C216.1,194.9,216.3,194.6,216.7,194z M215.6,195.5
						C215.6,195.5,215.6,195.5,215.6,195.5C215.6,195.6,215.6,195.6,215.6,195.5C215.5,195.6,215.5,195.6,215.6,195.5
						C215.6,195.6,215.6,195.5,215.6,195.5z M216.9,193.9C216.9,193.9,216.9,193.9,216.9,193.9L216.9,193.9
						C217,193.9,217,193.9,216.9,193.9c-0.2,0.6-0.2,0.6-0.2,0.7c0.1,0,0.1,0,0.3-0.2c-0.4,0.5-0.4,0.5-0.5,0.7c0,0,0,0,0-0.1
						c0,0,0,0,0,0c0,0,0,0.1-0.1,0.1l0-0.1l0,0c0,0,0,0,0,0c0,0,0,0,0,0l0,0c0.5-0.6,1.1-1.4,1.6-2.3c0,0,0,0.1-0.1,0.1
						c0.1-0.1,0.3-0.6,0.5-1.1c0.1-0.2,0.2-0.5,0.3-0.7c-0.4,1-0.9,1.6-1.5,2.3C217.1,193.7,217,193.8,216.9,193.9z M203.2,203.8
						c0.5-0.4,0.2-1.3,0.9-1.6c0.2-0.1,1.9-0.6,1.8,0.1c0,0.2-0.1,0.3-0.1,0.4c0.1-0.1,0.1-0.1,0.2-0.2c0,0,0,0,0.1,0
						c0.2-0.1,0.3-0.2,0.9-0.4c0.7-0.2,0.7-0.2,0.7-0.3c0,0-0.1,0-0.1,0c0,0,0,0,0-0.1c0.7-0.5,1.2-0.8,0.8-1.1
						c0.3-0.1,0.3-0.2,0.5-0.3c0.3,0.1,0.6-0.2,0.9-0.3c0,0,0.5-0.8,0.7-1.1c0,0,0,0,0,0l0,0c0,0,0,0,0,0c0,0,0,0,0,0c0,0,0,0,0,0
						l0,0c0,0,0,0,0,0l0,0c0,0-0.1,0-0.1-0.1c0,0,0-0.1,0.1-0.1c0,0,0,0,0-0.1c0.1,0,0.1,0,0.3,0.1c0.1-0.1,0.1-0.2,0.2-0.3
						c0.2-0.4,0.1-0.8,0.4-1.2c1.1-1.9,1.1-1.9,1.1-2c0.1-0.4,0.2-0.4,0.3-0.5c0,0,0,0,0,0.1c0.3-0.7,0.2-0.7-0.7-1.3
						c0,0,0.1-0.1,0.1-0.1c-0.4-0.5-1.2-0.3-1.6-0.9c-0.2-0.3-0.2-0.7-0.5-1c0,0,0,0-0.1,0c-0.1,0-0.3-0.1-0.6,0.6
						c-1.4,2.9-1.4,2.9-2.3,3.7c-0.7,0.6-0.7,0.6-1.8-0.3c-0.1,0.4-0.3,0.8-0.4,1.2c-0.5-0.4,0.1-0.8,0.1-1.2
						c-0.2,0.1-0.2,0.1-0.3,0.6c-0.1-0.2,0-0.4,0-0.5c0,0,0,0-0.1,0.1c-0.4-0.1-0.3-0.8-0.8-0.9c-0.1,0-0.1,0-0.9,0.7
						c0-0.1,0-0.1,0.1-0.2c0,0,0,0-0.1,0c0,0-0.1,0.1-0.1,0.1c-0.1,0-0.1,0-0.3-0.3c-0.2,0.6-0.8,1-1.1,1.5
						c-0.3,0.6-0.5,1.2-0.9,1.8c0,0.1-0.1,0.1-0.1,0.2c-0.7,1.2-0.8,1.5-0.8,2.1c0,0,0-0.1,0-0.1c0,0,0,0.1,0,0.1l0,0l0,0
						c0,0,0,0,0,0.1c0,0,0.1,0.3,0.3,0.5l1,0.7c0.3,0.2,0.7,0,1,0.3c0.1,0.1,0.1,0.2,0.1,0.4c0,0.4,0.1,0.4,0.6,0.5
						c0.5,0.1,0.5,0.1,0.7,0.2c0,0,0,0.1,0,0.1C203.3,203.7,203.2,203.8,203.2,203.8C203.2,203.8,203.2,203.8,203.2,203.8
						C203.2,203.8,203.2,203.8,203.2,203.8C203.2,203.8,203.2,203.8,203.2,203.8C203.2,203.8,203.2,203.8,203.2,203.8z M213.1,168.2
						c0.1,0,0.2,0,0.3,0.1c0.3,0.2,0.6,0.4,0.9,0.6c0.2,0.1,0.3,0.1,0.5,0.2c0.4,0.2,0.4,0.2,0.5,0.3c0,0.1,0.1,0.1,0.1,0.3
						c0,0.1-0.2,0.2-0.3,0.3l0,0c0-0.1,0-0.1-0.3-0.1c0,0,0,0,0,0c0-0.1,0-0.1,0-0.1c-0.3-0.1-0.3-0.1-0.7,0.1
						c-0.4,0.2-2.7,0.5-2.8-0.5c0-0.3,0.2-0.5,0.3-0.6C211.7,168.6,213,168.2,213.1,168.2z M215.1,169.8
						C215.1,169.9,215.1,169.9,215.1,169.8C215.1,169.9,215.1,169.9,215.1,169.8C215.1,169.9,215.1,169.9,215.1,169.8
						C215.1,169.9,215.1,169.9,215.1,169.8z M211.3,200.9L211.3,200.9C211.3,200.9,211.3,200.9,211.3,200.9
						C211.3,200.9,211.3,200.9,211.3,200.9z M180.9,165.1l0.2,0c0,0,0,0,0,0c0,0-0.4,0.5-0.3,1c0,0.5,0,0.5-0.3,0.8l0,0
						c0,0,0,0,0.1,0c0,0,0.9,1.1,0.9,1.7c0,0-0.2,0.9-0.5,1.2c0,0-0.2,0.5-0.4,1.8c0.5,0,0.7,0.1,0.7,0.2c0.2,0.1,1.2,2.6,1.2,2.6
						c0,0.1-0.2,0.9-0.9,1.1c0.3-0.1,0.6-0.2,0.8-0.2c0.8-0.2,1.4,0.6,0.6,1.6c0.6-0.1,0.6,0,0.6,0.7c0.1,0,0.1,0,0.7-0.1
						c0,0,0,0,0,0s0,0,0,0l0,0c0.1-0.1,0.2-0.1,0.3-0.1c-0.2,0.2-0.2,0.2-0.2,0.2c0,0,0,0.1,0.1,0.1c0,0,0.1-0.1,0.1-0.1
						c0.1,0,0.1,0.1,0.2,0.1c0.4,0.2,0.4,0.6,0.8,0.8c0.3,0.1,0.5-0.2,0.7-0.3c0.1,0,0.2,0,0.3,0c0,0,0.1,0,0.1,0.1
						c0.3,0.2,0.6,0.5,0.9,0.6c0.3,0.1,0.6,0,0.8,0.1c0,0,0,0.1,0,0.1c0.4-0.3,0.9-0.1,1.2-0.3c0,0.1,0,0.3,0.1,0.5
						c0.1,0,0.2,0,0.2,0c-0.1,0-0.1,0.1-0.2,0.1c0,0,0,0.1,0,0.1c-0.1,0-0.2,0-0.3,0c0,0.1-0.1,0.1-0.2,0.1c0,0,0,0.1,0,0.1
						c0,0-0.1,0-0.1,0c0,0,0-0.1,0-0.1c0,0.1-0.2,0.2-0.3,0.3c-0.1,0-0.2,0-0.2,0c0,0,0-0.1-0.1-0.1c0,0,0,0,0,0
						c-0.1,0.1-0.2,0.2-0.4,0.2c0.1-0.1,0.2-0.2,0.1-0.1c0,0-0.1,0-0.1,0c0,0,0,0.1,0,0.1c-0.4,0-0.4,0-0.4,0c0.1,0,0.1-0.1,0.2-0.1
						c-0.4,0.1-0.4,0.1-0.5,0.1c0,0,0,0,0,0c-0.3,0-0.6-0.1-0.9-0.1c0,0,0.1,0,0.1,0c0.3,0.1,0.4,0.1,0.5,0.1
						c-0.1,0-0.2,0.1-0.6,0.1l-0.1,0c0,0-0.1,0-0.2,0c-0.1,0-0.1,0-0.3,0c0.1-0.2,0.1-0.2,0.3-0.2c-0.2,0-0.4,0-0.6,0
						c0,0-0.1,0-0.1-0.1c-0.1,0.1-0.2,0.1-0.3,0.2c-0.3,0-0.3,0-0.4-0.1c0,0,0.1,0,0.1,0c0,0,0-0.1-0.1-0.1c-0.3,0-0.3,0-0.4,0.1
						c0,0,0-0.1,0-0.1c-0.1,0-0.1,0-0.2,0c0.2-0.1,0.4,0,0.5-0.1c0,0,0,0-0.4-0.1c0,0,0,0,0.1-0.1c-0.2,0-0.7,0-1.2,0.1
						c0.2,0,0.3,0.1,0.5,0.1c0,0,0.1,0.1,0.1,0.2c-0.5,0.1-0.5,0-0.6-0.1c-0.3,0.2-2,0.3-2.1,0.3c-0.6,0-1.1-0.4-1.7-0.4
						c-0.6-0.1-1.2,0.1-1.8,0c-0.2,0-0.4,0-0.6-0.1c-1.8-0.3-2.2,0.8-3.3,3.9c-0.3,0.7-0.3,0.7-0.8,1.3c0,0.1,0,0.2,0,0.2
						c-0.2-0.3-0.3-0.6-0.4-1l0-0.1c-0.2-2.8,0.1-5.6,0.9-8.4c0.5-1.6,1.1-3.2,1.9-4.6c0.2-0.3,0.2-0.4,0.3-0.5c0,0,0,0.1,0,0.1
						c0,0,0-0.1,0.1-0.1c0,0.1-0.1,0.1-0.1,0.2c0.2-0.4,0.2-0.4,0.4-0.6c0,0,0,0.1,0,0.2c0.3-0.8,1.1-1.9,1.1-1.9
						c0.4-0.5,0.4-0.5,0.6-0.8C178.4,167.2,179.5,165.8,180.9,165.1z M189,179.3c0,0,0,0,0,0.2c0.1-0.1,0.2-0.2,0.4-0.2
						c-0.1,0-0.1-0.1-0.2,0c0-0.1,0-0.1,0-0.1c0,0,0,0-0.2-0.1c0,0,0,0,0,0c0,0,0,0,0,0.1c0,0,0,0,0,0c0,0,0,0,0,0c0,0,0,0,0,0
						c0,0,0,0,0,0c0,0,0,0,0,0c0,0,0,0,0,0c0,0,0,0,0,0c0,0,0,0,0,0c-0.1,0.1-0.2,0.1-0.3,0c0,0,0,0.1,0,0.1
						C188.8,179.3,188.9,179.2,189,179.3z M209.3,202.2c0.1,0,0.1-0.1,0.1-0.1c0,0,0,0,0,0c0,0-0.2,0.2-0.3,0.2c0,0,0,0,0,0
						c0.1,0,0.1,0,0.1,0c0,0,0,0,0,0c0.1-0.1,0.2-0.1,0.2-0.2c0,0,0,0,0,0c0,0,0,0,0.1,0c0,0,0,0,0.1,0c0,0,0,0,0,0c0,0,0,0-0.1,0
						c0,0,0,0,0,0c0.1-0.1,0.2-0.1,0.2-0.1c0,0,0,0,0,0c0,0,0,0,0,0C209.8,202,209.5,202.1,209.3,202.2z M212.9,199.3
						c-0.1,0-0.2,0.1-0.3,0c-0.1,0.1-0.2,0.2-0.4,0.3c0.2,0.2,0,0.4-0.1,0.4c-0.1,0-0.1,0-0.2,0c-0.2,0.1-0.4,0.3-0.4,0.3
						c0-0.1-0.1-0.1-0.1-0.1c0,0,0,0-0.1,0c-0.2,0.2-0.1,0.2-0.1,0.3c0,0,0,0,0.2-0.1c0,0,0.1,0,0.5-0.2c0,0,0.1,0,0.1,0
						c-0.3,0.2-0.4,0.4-0.7,0.6c0,0,0,0,0,0c0.4-0.3,0.8-0.7,1.3-1c0,0.1-0.3,0.3-0.6,0.6c-0.4,0.3-0.7,0.6-1.1,0.9c0,0,0,0,0,0
						c-0.1,0.1-0.2,0.2-0.3,0.2c0.1,0,0.2-0.1,0.2-0.2c1.1-0.8,1.6-1.3,1.6-1.3c0.1-0.1,0.1-0.1,0.1-0.1L212.9,199.3
						C212.9,199.3,212.9,199.3,212.9,199.3z M218.9,191.1L218.9,191.1C218.9,191.1,218.9,191.1,218.9,191.1
						C218.9,191.1,218.9,191.1,218.9,191.1z M215.4,196.6c0.1-0.1,0.8-0.6,0.8-0.6c0,0-0.3,0.5-1,1.4l-0.1,0.1
						c-0.5,0.5-0.9,1.1-1.5,1.6c0,0-0.1,0.1-0.1,0.1c0,0,0.1-0.1,0.1-0.1c-0.4,0.4-0.5,0.5-0.6,0.5c0,0,0,0,0.3-0.3c0,0,0,0,0,0
						c0.1-0.2,0.3-0.3,0.4-0.5c0,0,0-0.1,0-0.1c0-0.1,0-0.1,0.1-0.2c0,0,0,0.1,0,0.1c0,0,0.1-0.1,0.1-0.1c0.5-0.5,0.5-0.5,0.5-0.5
						C214.5,197.7,215.4,196.6,215.4,196.6z M215.9,196.2C215.9,196.2,215.9,196.2,215.9,196.2C215.9,196.2,215.9,196.2,215.9,196.2
						C215.9,196.2,215.9,196.2,215.9,196.2L215.9,196.2z M218.2,192.7L218.2,192.7c0,0-0.1,0.1-0.1,0.2
						C218.1,192.8,218.1,192.7,218.2,192.7z M198.7,205.5c-0.2,0-0.2,0-0.3,0l0,0c-0.1,0-0.1,0-0.1,0l0,0l0,0l0,0c0,0,0,0,0,0
						c0,0,0,0,0,0c0,0.1,0.5,0.1,0.9,0.1c0.1,0,0.1,0,0.2,0c0,0-0.1,0-0.1,0c0.1,0,0.1,0,0.1,0c0,0,0,0-0.1,0
						C199.2,205.5,198.9,205.5,198.7,205.5c0.4,0,0.6-0.1,0.9-0.2c0.3,0,0.3,0,0.5-0.1c0,0,0.1,0,0.1,0c0.2,0,0.2,0,0.2-0.1
						c-0.1,0-0.2-0.1-1,0.1C198.8,205.3,198.7,205.4,198.7,205.5z M210.9,199.9c-0.1,0-0.1,0-0.4,0.4c0,0-0.8,0.8-0.8,0.8
						c0,0,0,0,0,0c0,0,0,0,0.1-0.1C210.6,200.5,210.9,200,210.9,199.9z M207.8,203C207.8,203,207.8,203,207.8,203
						c-0.2,0.1-0.5,0.1-0.7,0.3c-0.4-0.1-0.7,0.2-1.1,0.4c-0.5,0.2-0.6,0.2-1.2,0.2c0.3-0.1,0.5-0.2,0.5-0.3c-0.2,0.1-0.7,0.3-1,0.4
						c-0.2-0.1-1.1,0.2-1.3,0.4c0,0,0.1,0,0.1,0c0,0,0,0,0,0c0,0,0,0,0,0c-0.4,0.1-0.4,0.1-0.4,0.1c0,0,0,0,0,0l0,0
						c-0.2,0.1-1.2,0.2-1.4,0.2c-0.8-0.2-1.8,0-1.8,0c0,0,0,0,0,0c0.4,0.2,0.9,0,1.4,0.2c0,0,0,0-0.1,0.2c0.3,0.2,2.2-0.1,3-0.3
						c0.8-0.2,0.8-0.2,2.4-1c0.2-0.1,0.5-0.1,0.7-0.2c0.2-0.1,0.4-0.2,0.5-0.3c0.3-0.2,0.9-0.5,0.9-0.5c-0.1,0.1-0.9,0.4-1.4,0.7
						C207.3,203.2,207.5,203.1,207.8,203z M207.8,203C207.8,203,207.8,203,207.8,203L207.8,203C207.8,203,207.8,203,207.8,203z
						 M209.2,202.2c0.2-0.1,0.3-0.2,0.3-0.2C209.5,201.9,209.5,201.9,209.2,202.2C209.2,202.1,209.2,202.1,209.2,202.2
						c0.1-0.1-0.8,0.4-0.9,0.4c0,0,0,0,0,0c0,0,0.1,0,0.1-0.1c0,0-0.1,0-0.1,0C208.6,202.5,208.9,202.3,209.2,202.2z M209.7,201.8
						C209.7,201.8,209.7,201.8,209.7,201.8C209.7,201.8,209.7,201.8,209.7,201.8C209.7,201.8,209.7,201.8,209.7,201.8
						c0.1,0,0.3-0.1,0.4-0.2c0.1-0.1,0.1-0.1,0.1-0.1c0,0,0,0,0,0C210.1,201.4,209.7,201.7,209.7,201.8z M217.4,194.1
						C217.4,194.1,217.4,194.1,217.4,194.1c0.1-0.2,0.2-0.3,0.3-0.5c0.1-0.2,0.3-0.5,0.4-0.7C218,193,217.9,193.2,217.4,194.1
						C217.4,194,217.4,194,217.4,194.1z M191.7,177.3c-0.6,0.2-0.1,1.3,0.1,1.7c0.1,0.1,0.2,0.2,0.2,0.3c0.1,0.2,0.2,0.4,0.3,0.6
						c0.1,0.2,0.4,0.6,0.6,0.5c0.2,0.7-0.4,1.2-0.6,1.9c-0.1,0.4,0,0.7,0.2,1c0.1,0.1,0.2,0.1,0.3,0.3c0.1,0.1,0.1,0.4,0.2,0.5
						c0.1,0.2,0.3,0.2,0.5,0.4c0.2,0.3,0.6,0.7,0.7,1.1c0.2,0,0.5,0,0.7-0.1c0.3,0,0.3-0.3,0.6-0.4c0.3-0.1,0.7,0.1,1,0
						c0.4,0,0.7-0.1,1.1-0.1c0.4,0,0.5,0.1,0.8,0.4c0.4,0.4,0.4,0.7,0,1.1c-0.2,0.2-0.4,0.4-0.5,0.7c0,0.4,0.2,0.4,0.5,0.3
						c0.3,0,0.6,0,0.9,0c0.3,0,0.7-0.2,0.9-0.3c0.5-0.3,1.1-0.3,1.6-0.7c0.3-0.2,0.5-0.5,0.8-0.8c0.3-0.3,0.6-0.5,0.9-0.7
						c0.3-0.2,0.6-0.4,0.8-0.7c0.2-0.4,0.5-0.7,0.7-1.1c0.2-0.4,0.4-0.7,0.3-1.1c-0.1-0.3-0.3-0.4-0.5-0.7c-0.2-0.2-0.2-0.6-0.4-0.8
						c-0.2-0.4-0.4-0.7-0.5-1.2c-0.1-0.6-0.1-1.2-0.3-1.7c-0.2-0.5-0.5-0.9-0.8-1.2c-0.2-0.2-0.3-0.3-0.5-0.4
						c-0.3-0.2-0.5-0.3-0.8-0.5c-0.2-0.1-0.4-0.4-0.7-0.5c-0.3-0.1-0.6,0.1-0.9,0.1c-0.3,0-0.5,0-0.7-0.1c-0.1-0.1-0.2-0.2-0.3-0.2
						c-0.2-0.1-0.5-0.1-0.7-0.1c-0.4-0.1-0.7-0.2-1-0.2c-0.6,0-1,0.1-1.3,0.6c-0.1,0.1-0.1,0.2-0.1,0.3c-0.1,0.1-0.2,0.2-0.3,0.4
						c-0.1,0.4,0.1,0.9,0,1.2c-0.1,0.2-0.3,0.5-0.4,0.7c-0.1,0.2-0.1,0.5-0.3,0.7c-0.1,0.2-0.3,0.5-0.4,0.6
						c-0.6,0.4-1.4,0.1-1.8-0.4c-0.1-0.1-0.2-0.3-0.3-0.3c-0.1-0.1-0.2-0.1-0.3-0.1C191.7,177.8,191.8,177.5,191.7,177.3z"/>
					<path class="st46" d="M207.7,160.8c2.8,3.5,4.7,7.8,5.2,12.5c1.4,13.1-8.1,24.8-21.2,26.2c-4.8,0.5-9.4-0.4-13.4-2.5
						c4.9,6,12.7,9.5,21,8.6c13.1-1.4,22.6-13.1,21.2-26.2C219.6,171.2,214.6,164.4,207.7,160.8z"/>
					<path class="st47" d="M173.2,178.8c0.5,0,1,0,1.6-0.1c8.7-0.9,15-8.7,14.1-17.4c-0.1-0.5-0.1-1-0.2-1.6
						C180.4,162.7,174.4,170.1,173.2,178.8z"/>
				</g>
			</g>
		</g>
		<path class="st42" d="M250.1,202.3H377c2,0,3.6-1.6,3.6-3.6l0,0c0-2-1.6-3.6-3.6-3.6H250.1c-2,0-3.6,1.6-3.6,3.6l0,0
			C246.5,200.6,248.1,202.3,250.1,202.3z"/>
		<path class="st42" d="M327,181.7h56.5c1.5,0,2.8-1.2,2.8-2.8v-1.7c0-1.5-1.2-2.8-2.8-2.8H327c-1.5,0-2.8,1.2-2.8,2.8v1.7
			C324.2,180.4,325.5,181.7,327,181.7z"/>
		<line class="st48" x1="246.9" y1="219.2" x2="320.1" y2="219.2"/>
		<line class="st48" x1="333.8" y1="219.2" x2="373.8" y2="219.2"/>
		<line class="st48" x1="154.4" y1="267.2" x2="232.1" y2="267.2"/>
		<line class="st48" x1="246.9" y1="267.2" x2="315.5" y2="267.2"/>
		<line class="st48" x1="330.3" y1="267.2" x2="364.6" y2="267.2"/>
		<line class="st48" x1="180.7" y1="288.9" x2="364.6" y2="288.9"/>
		<line class="st48" x1="147.5" y1="288.9" x2="167" y2="288.9"/>
		<line class="st48" x1="326.9" y1="309.5" x2="143" y2="309.5"/>
		<line class="st48" x1="360" y1="309.5" x2="340.6" y2="309.5"/>
		<line class="st48" x1="347.5" y1="331.2" x2="269.8" y2="331.2"/>
		<line class="st48" x1="254.9" y1="331.2" x2="186.4" y2="331.2"/>
		<line class="st48" x1="171.5" y1="331.2" x2="137.2" y2="331.2"/>
		<line class="st48" x1="312.1" y1="354" x2="128.1" y2="354"/>
		<line class="st48" x1="345.2" y1="354" x2="325.8" y2="354"/>
		<line class="st48" x1="333.8" y1="376.9" x2="256.1" y2="376.9"/>
		<line class="st48" x1="241.2" y1="376.9" x2="172.7" y2="376.9"/>
		<line class="st48" x1="157.8" y1="376.9" x2="123.5" y2="376.9"/>
	</g>
</g>
</svg>
