<svg version="1.0" xmlns="http://www.w3.org/2000/svg" viewBox="0 0 900.000000 828.000000"><g transform="translate(0.000000,828.000000) scale(0.100000,-0.100000)" stroke="none"> <path d="M4230 8266 c0 -10 -19 -16 -67 -21 -240 -22 -587 -133 -850 -272 -114 -60 -179 -100 -378 -237 -34 -24 -212 -165 -235 -187 -8 -8 -51 -46 -95 -84 -106 -93 -341 -328 -495 -495 -68 -74 -129 -140 -135 -146 -5 -6 -55 -60 -110 -120 -55 -59 -131 -142 -169 -184 -110 -119 -413 -419 -506 -500 -110 -96 -506 -491 -596 -595 -230 -265 -417 -550 -497 -760 -8 -22 -22 -58 -30 -80 -18 -49 -42 -140 -57 -220 -13 -70 -8 -405 8 -475 21 -97 86 -244 149 -343 15 -23 32 -49 38 -58 58 -95 273 -328 445 -483 62 -56 214 -183 290 -241 36 -28 70 -55 75 -61 6 -6 39 -33 75 -59 36 -27 97 -74 135 -105 39 -31 126 -101 195 -156 69 -54 136 -108 149 -119 134 -110 343 -310 447 -426 82 -91 173 -195 224 -254 23 -27 52 -61 64 -75 12 -14 71 -84 131 -155 216 -257 293 -343 460 -511 192 -193 246 -240 406 -360 105 -79 153 -110 263 -172 96 -55 277 -142 295 -142 5 0 22 -6 38 -14 30 -15 188 -64 288 -89 195 -49 279 -58 620 -64 368 -6 471 2 765 64 128 27 325 85 450 133 30 12 69 26 87 31 18 5 35 14 38 19 4 6 12 10 20 10 23 0 279 122 410 196 33 18 69 38 80 44 106 54 345 208 570 367 134 94 473 354 775 593 41 33 165 128 275 212 421 320 579 530 671 898 27 106 27 499 0 640 -9 52 -24 131 -32 175 -9 44 -21 107 -29 140 -7 33 -20 96 -30 140 -9 44 -23 105 -30 135 -13 53 -24 109 -60 285 -26 129 -72 308 -91 353 -8 18 -14 39 -14 47 0 8 -6 29 -14 47 -8 18 -24 58 -36 88 -21 52 -99 212 -124 255 -155 265 -403 520 -881 905 -122 98 -224 190 -309 278 -85 88 -237 267 -282 332 -14 19 -35 49 -47 65 -12 17 -41 55 -63 85 -22 30 -62 85 -87 123 -26 37 -67 97 -92 133 -25 36 -45 67 -45 70 0 3 -21 34 -47 69 -27 36 -68 95 -93 131 -56 82 -232 318 -298 399 -146 179 -350 365 -530 483 -87 56 -269 150 -344 177 -182 65 -349 107 -493 123 -47 5 -69 12 -67 20 1 9 -64 12 -288 12 -244 0 -290 -2 -290 -14z"/> </g> </svg>